<svg id="SvgjsSvg1001" width="80" height="80" xmlns="http://www.w3.org/2000/svg" version="1.1" xmlns:xlink="http://www.w3.org/1999/xlink" xmlns:svgjs="http://svgjs.com/svgjs">
<defs id="SvgjsDefs1002"></defs><g id="SvgjsG1008"><svg xmlns="http://www.w3.org/2000/svg" width="80" height="80" data-name="Layer 1" viewBox="-20 0 700 800"><path d="M-343.86 22.2A109.77 109.77.0 00-453.62 132a109.76 109.76.0 00109.76 109.73A109.77 109.77.0 00-234.08 132 109.78 109.78.0 00-343.86 22.2zm21.41 124.94-.08.05-12.12 15.72a.82.82.0 01-1.46-.42l-7.73-89.16-7.76 89.16a.82.82.0 01-1.46.42l-12.11-15.73h-.08l-52.32 29.37 34.9-52 7.87-11.74a.82.82.0 011.49.45v11.28L-343.87 73v-.05V73l29.44 51.42V113.18a.81.81.0 011.48-.45l7.88 11.74 34.88 52z" class="cls-1 color000 svgShape" transform="translate(453.62 -22.2)" fill="#a7aaad"></path></svg></g>
</svg>